<svg width="400" height="253" viewBox="0 0 400 253" fill="none" xmlns="http://www.w3.org/2000/svg">
<path d="M101.165 232.39C98.2311 232.39 95.6406 231.895 93.3931 230.904C91.1454 229.876 89.374 228.428 88.0789 226.561C86.7834 224.657 86.1169 222.352 86.0789 219.647H93.7931C93.8691 221.514 94.536 223.095 95.7931 224.39C97.0883 225.647 98.8597 226.276 101.107 226.276C103.05 226.276 104.593 225.819 105.736 224.904C106.879 223.952 107.45 222.695 107.45 221.133C107.45 219.495 106.936 218.219 105.907 217.304C104.917 216.39 103.583 215.647 101.907 215.076C100.231 214.504 98.4406 213.895 96.536 213.247C93.4503 212.181 91.0883 210.809 89.4503 209.133C87.8503 207.457 87.0503 205.228 87.0503 202.447C87.012 200.085 87.5646 198.066 88.7074 196.39C89.8883 194.676 91.4883 193.361 93.5074 192.447C95.5263 191.495 97.8503 191.019 100.479 191.019C103.145 191.019 105.488 191.495 107.507 192.447C109.565 193.4 111.165 194.733 112.307 196.447C113.488 198.161 114.117 200.2 114.193 202.561H106.365C106.326 201.152 105.774 199.914 104.707 198.847C103.679 197.743 102.231 197.19 100.365 197.19C98.7646 197.152 97.412 197.552 96.3074 198.39C95.2406 199.19 94.7074 200.371 94.7074 201.933C94.7074 203.266 95.1263 204.333 95.9646 205.133C96.8026 205.895 97.9454 206.543 99.3931 207.076C100.841 207.609 102.498 208.181 104.365 208.79C106.345 209.476 108.155 210.276 109.793 211.19C111.431 212.104 112.745 213.323 113.736 214.847C114.726 216.333 115.222 218.257 115.222 220.619C115.222 222.714 114.688 224.657 113.622 226.447C112.555 228.238 110.974 229.685 108.879 230.79C106.783 231.857 104.212 232.39 101.165 232.39ZM121.432 231.704V190.561H128.746V207.704C129.699 206.143 130.975 204.923 132.575 204.047C134.213 203.133 136.079 202.676 138.175 202.676C141.679 202.676 144.384 203.781 146.289 205.99C148.232 208.2 149.203 211.438 149.203 215.704V231.704H141.946V216.39C141.946 213.952 141.451 212.085 140.461 210.79C139.508 209.495 137.984 208.847 135.889 208.847C133.832 208.847 132.118 209.571 130.746 211.019C129.413 212.466 128.746 214.485 128.746 217.076V231.704H121.432ZM166.826 232.39C163.283 232.39 160.54 231.285 158.597 229.076C156.693 226.866 155.74 223.628 155.74 219.361V203.361H162.997V218.676C162.997 221.114 163.493 222.981 164.483 224.276C165.474 225.571 167.036 226.219 169.169 226.219C171.188 226.219 172.845 225.495 174.14 224.047C175.474 222.6 176.14 220.581 176.14 217.99V203.361H183.455V231.704H176.997L176.426 226.904C175.55 228.581 174.274 229.914 172.597 230.904C170.959 231.895 169.036 232.39 166.826 232.39ZM192.277 231.704V209.476H188.392V203.361H192.277V200.047C192.277 196.619 193.135 194.181 194.849 192.733C196.601 191.285 198.963 190.561 201.935 190.561H205.077V196.79H203.077C201.82 196.79 200.925 197.038 200.392 197.533C199.858 198.028 199.592 198.866 199.592 200.047V203.361H205.706V209.476H199.592V231.704H192.277ZM212.813 231.704V209.476H208.927V203.361H212.813V200.047C212.813 196.619 213.67 194.181 215.385 192.733C217.137 191.285 219.499 190.561 222.47 190.561H225.613V196.79H223.613C222.356 196.79 221.461 197.038 220.927 197.533C220.394 198.028 220.127 198.866 220.127 200.047V203.361H226.242V209.476H220.127V231.704H212.813ZM232.013 231.704V190.561H239.327V231.704H232.013ZM260.594 232.39C257.737 232.39 255.203 231.781 252.994 230.561C250.785 229.343 249.051 227.628 247.794 225.419C246.537 223.209 245.908 220.657 245.908 217.761C245.908 214.828 246.518 212.219 247.737 209.933C248.994 207.647 250.708 205.876 252.88 204.619C255.089 203.323 257.68 202.676 260.651 202.676C263.432 202.676 265.889 203.285 268.023 204.504C270.156 205.723 271.813 207.4 272.994 209.533C274.213 211.628 274.823 213.971 274.823 216.561C274.823 216.981 274.803 217.419 274.765 217.876C274.765 218.333 274.746 218.809 274.708 219.304H253.165C253.318 221.514 254.08 223.247 255.451 224.504C256.861 225.761 258.556 226.39 260.537 226.39C262.023 226.39 263.261 226.066 264.251 225.419C265.28 224.733 266.042 223.857 266.537 222.79H273.965C273.432 224.581 272.537 226.219 271.28 227.704C270.061 229.152 268.537 230.295 266.708 231.133C264.918 231.971 262.88 232.39 260.594 232.39ZM260.651 208.619C258.861 208.619 257.28 209.133 255.908 210.161C254.537 211.152 253.661 212.676 253.28 214.733H267.394C267.28 212.866 266.594 211.381 265.337 210.276C264.08 209.171 262.518 208.619 260.651 208.619ZM281.146 231.704V191.704H288.46V231.704H281.146ZM308.669 231.704C305.697 231.704 303.317 230.981 301.526 229.533C299.737 228.085 298.84 225.514 298.84 221.819V209.476H293.983V203.361H298.84L299.697 195.761H306.154V203.361H313.811V209.476H306.154V221.876C306.154 223.247 306.44 224.2 307.011 224.733C307.623 225.228 308.651 225.476 310.097 225.476H313.64V231.704H308.669Z" fill="#FF9900"/>
<path d="M130.643 118.082C128.8 116.691 127.761 114.786 127.761 112.798V95.1486L199.645 93.4991L271.213 94.3237V113.335C271.213 115.331 270.166 117.242 268.311 118.634L206.366 165.11C202.629 167.913 196.67 167.907 192.944 165.095L130.643 118.082Z" fill="white"/>
<path d="M130.643 118.082C128.8 116.691 127.761 114.786 127.761 112.798V95.1486L199.645 93.4991L271.213 94.3237V113.335C271.213 115.331 270.166 117.242 268.311 118.634L206.366 165.11C202.629 167.913 196.67 167.907 192.944 165.095L130.643 118.082Z" fill="url(#paint0_linear_29_113)"/>
<path d="M130.643 99.6429C128.8 98.2514 127.761 96.3471 127.761 94.3589V76.7091L199.645 75.06L271.213 75.8846V94.896C271.213 96.8917 270.166 98.8026 268.311 100.195L206.366 146.67C202.629 149.474 196.67 149.467 192.944 146.655L130.643 99.6429Z" fill="white"/>
<path d="M130.643 99.6429C128.8 98.2514 127.761 96.3471 127.761 94.3589V76.7091L199.645 75.06L271.213 75.8846V94.896C271.213 96.8917 270.166 98.8026 268.311 100.195L206.366 146.67C202.629 149.474 196.67 149.467 192.944 146.655L130.643 99.6429Z" fill="url(#paint1_linear_29_113)"/>
<path d="M130.643 81.0703C128.8 79.6789 127.761 77.7746 127.761 75.7863V58.1366L199.645 56.4874L271.48 57.312L271.25 76.3643C271.227 78.3357 270.182 80.2183 268.348 81.594L206.366 128.098C202.629 130.901 196.67 130.895 192.944 128.083L130.643 81.0703Z" fill="white"/>
<path d="M130.643 81.0703C128.8 79.6789 127.761 77.7746 127.761 75.7863V58.1366L199.645 56.4874L271.48 57.312L271.25 76.3643C271.227 78.3357 270.182 80.2183 268.348 81.594L206.366 128.098C202.629 130.901 196.67 130.895 192.944 128.083L130.643 81.0703Z" fill="url(#paint2_linear_29_113)"/>
<path d="M192.855 5.23041L130.808 53.022C127.058 55.9106 127.058 60.594 130.808 63.4826L192.855 111.274C196.606 114.163 202.686 114.163 206.436 111.274L268.483 63.4826C272.234 60.594 272.234 55.9106 268.483 53.022L206.436 5.23041C202.686 2.34174 196.606 2.34174 192.855 5.23041Z" fill="white"/>
<path d="M176.418 64.8763C176.641 65.0477 176.998 65.0506 177.215 64.8831L177.294 64.8226L176.327 64.0777L176.248 64.1383C176.031 64.3057 176.035 64.5806 176.257 64.752L176.418 64.8763Z" fill="#FFE5BE"/>
<path d="M192.771 5.22521L130.515 53.0606C126.759 55.9463 126.759 60.6252 130.515 63.5109L192.771 111.346C196.527 114.232 202.616 114.232 206.372 111.346L268.628 63.5109C272.384 60.6252 272.384 55.9463 268.628 53.0606L206.372 5.22521C202.616 2.3394 196.527 2.3394 192.771 5.22521Z" fill="white"/>
<path d="M192.771 5.22521L130.515 53.0606C126.759 55.9463 126.759 60.6252 130.515 63.5109L192.771 111.346C196.527 114.232 202.616 114.232 206.372 111.346L268.628 63.5109C272.384 60.6252 272.384 55.9463 268.628 53.0606L206.372 5.22521C202.616 2.3394 196.527 2.3394 192.771 5.22521Z" fill="url(#paint3_linear_29_113)"/>
<g filter="url(#filter0_d_29_113)">
<path d="M164.722 54.0603L167.061 79.8948C167.282 82.3377 170.038 84.4557 173.218 84.6254L206.841 86.4223C210.02 86.5923 212.418 84.7497 212.197 82.3068L209.858 56.4723C209.637 54.0294 206.881 51.9114 203.702 51.7414L170.078 49.9448C166.899 49.7748 164.501 51.6174 164.722 54.0603Z" fill="url(#paint4_linear_29_113)"/>
</g>
<g filter="url(#filter1_d_29_113)">
<path d="M172.845 44.6103L175.313 71.8803C175.546 74.4589 178.456 76.6943 181.812 76.8737L217.303 78.7703C220.659 78.9497 223.19 77.0049 222.957 74.4263L220.488 47.1563C220.255 44.5777 217.345 42.342 213.989 42.1629L178.498 40.2663C175.142 40.0869 172.611 42.0317 172.845 44.6103Z" fill="url(#paint5_linear_29_113)"/>
</g>
<g filter="url(#filter2_d_29_113)">
<path d="M182.012 35.8732L184.611 64.5783C184.856 67.2926 187.919 69.6457 191.451 69.8346L228.81 71.8312C232.343 72.0197 235.007 69.9726 234.762 67.2583L232.163 38.5535C231.918 35.8392 228.855 33.4857 225.322 33.2969L187.963 31.3006C184.431 31.1117 181.767 33.1592 182.012 35.8732Z" fill="url(#paint6_linear_29_113)"/>
</g>
<g filter="url(#filter3_d_29_113)">
<path d="M218.819 47.2654C218.73 47.1597 218.642 47.0537 218.554 46.9477C214.696 42.3049 206.156 39.8257 198.554 40.9291C203.596 41.75 208.17 43.9292 210.625 46.9983C210.833 47.2729 211.042 47.5471 211.225 47.8409C211.041 47.852 210.832 47.8823 210.573 47.9506C210.573 47.9506 202.911 48.9697 192.473 48.4274C192.207 48.414 199.52 49.8363 206.304 50.3177C203.906 50.7263 196.493 51.2497 191.252 51.1909C192.169 51.3991 193.136 51.5692 194.07 51.6769C199.317 52.4272 205.941 53.2052 212.234 52.89C211.516 55.9629 208.33 58.6277 203.246 59.796C202.003 60.0994 200.695 60.278 199.381 60.3749C203.318 61.2626 207.684 61.2977 211.617 60.2754C216.273 59.0452 219.316 56.576 220.211 53.7152C220.211 53.7152 220.236 53.6963 220.208 53.6746C220.25 53.5546 220.265 53.4134 220.308 53.2934C220.774 51.9351 222.309 49.7563 226.103 50.8403C227.044 51.0294 224.271 47.9443 218.819 47.2654Z" fill="white"/>
</g>
<defs>
<filter id="filter0_d_29_113" x="158.708" y="47.934" width="55.5032" height="44.4992" filterUnits="userSpaceOnUse" color-interpolation-filters="sRGB">
<feFlood flood-opacity="0" result="BackgroundImageFix"/>
<feColorMatrix in="SourceAlpha" type="matrix" values="0 0 0 0 0 0 0 0 0 0 0 0 0 0 0 0 0 0 127 0" result="hardAlpha"/>
<feOffset dx="-2" dy="2"/>
<feGaussianBlur stdDeviation="2"/>
<feColorMatrix type="matrix" values="0 0 0 0 0.5625 0 0 0 0 0.4875 0 0 0 0 0.4875 0 0 0 0.25 0"/>
<feBlend mode="normal" in2="BackgroundImageFix" result="effect1_dropShadow_29_113"/>
<feBlend mode="normal" in="SourceGraphic" in2="effect1_dropShadow_29_113" result="shape"/>
</filter>
<filter id="filter1_d_29_113" x="165.83" y="39.2548" width="58.1421" height="46.527" filterUnits="userSpaceOnUse" color-interpolation-filters="sRGB">
<feFlood flood-opacity="0" result="BackgroundImageFix"/>
<feColorMatrix in="SourceAlpha" type="matrix" values="0 0 0 0 0 0 0 0 0 0 0 0 0 0 0 0 0 0 127 0" result="hardAlpha"/>
<feOffset dx="-3" dy="3"/>
<feGaussianBlur stdDeviation="2"/>
<feColorMatrix type="matrix" values="0 0 0 0 0.65 0 0 0 0 0.365625 0 0 0 0 0.365625 0 0 0 0.25 0"/>
<feBlend mode="normal" in2="BackgroundImageFix" result="effect1_dropShadow_29_113"/>
<feBlend mode="normal" in="SourceGraphic" in2="effect1_dropShadow_29_113" result="shape"/>
</filter>
<filter id="filter2_d_29_113" x="173.997" y="31.2885" width="60.7808" height="48.5547" filterUnits="userSpaceOnUse" color-interpolation-filters="sRGB">
<feFlood flood-opacity="0" result="BackgroundImageFix"/>
<feColorMatrix in="SourceAlpha" type="matrix" values="0 0 0 0 0 0 0 0 0 0 0 0 0 0 0 0 0 0 127 0" result="hardAlpha"/>
<feOffset dx="-4" dy="4"/>
<feGaussianBlur stdDeviation="2"/>
<feColorMatrix type="matrix" values="0 0 0 0 0.333333 0 0 0 0 0.225 0 0 0 0 0.225 0 0 0 0.19 0"/>
<feBlend mode="normal" in2="BackgroundImageFix" result="effect1_dropShadow_29_113"/>
<feBlend mode="normal" in="SourceGraphic" in2="effect1_dropShadow_29_113" result="shape"/>
</filter>
<filter id="filter3_d_29_113" x="182.252" y="39.6688" width="45.0317" height="30.3728" filterUnits="userSpaceOnUse" color-interpolation-filters="sRGB">
<feFlood flood-opacity="0" result="BackgroundImageFix"/>
<feColorMatrix in="SourceAlpha" type="matrix" values="0 0 0 0 0 0 0 0 0 0 0 0 0 0 0 0 0 0 127 0" result="hardAlpha"/>
<feOffset dx="-4" dy="4"/>
<feGaussianBlur stdDeviation="2.5"/>
<feColorMatrix type="matrix" values="0 0 0 0 0 0 0 0 0 0 0 0 0 0 0 0 0 0 0.25 0"/>
<feBlend mode="normal" in2="BackgroundImageFix" result="effect1_dropShadow_29_113"/>
<feBlend mode="normal" in="SourceGraphic" in2="effect1_dropShadow_29_113" result="shape"/>
</filter>
<linearGradient id="paint0_linear_29_113" x1="129.595" y1="110.359" x2="272.133" y2="113.059" gradientUnits="userSpaceOnUse">
<stop stop-color="#FF7F37"/>
<stop offset="1" stop-color="#BF8F14"/>
</linearGradient>
<linearGradient id="paint1_linear_29_113" x1="129.595" y1="91.92" x2="272.133" y2="94.6191" gradientUnits="userSpaceOnUse">
<stop stop-color="#FF7A00" stop-opacity="0.83"/>
<stop offset="1" stop-color="#DCAC00"/>
</linearGradient>
<linearGradient id="paint2_linear_29_113" x1="129.595" y1="73.3474" x2="272.133" y2="76.0466" gradientUnits="userSpaceOnUse">
<stop stop-color="#FF7C03" stop-opacity="0.7"/>
<stop offset="1" stop-color="#FFB800" stop-opacity="0.81"/>
</linearGradient>
<linearGradient id="paint3_linear_29_113" x1="129.309" y1="59.0872" x2="272.278" y2="61.8017" gradientUnits="userSpaceOnUse">
<stop stop-color="#FF7A00" stop-opacity="0.521562"/>
<stop offset="1" stop-color="#FFB800" stop-opacity="0.54"/>
</linearGradient>
<linearGradient id="paint4_linear_29_113" x1="165.892" y1="66.9777" x2="210.444" y2="62.9448" gradientUnits="userSpaceOnUse">
<stop stop-color="#FFA2A2"/>
<stop offset="1" stop-color="#FFDAA2"/>
</linearGradient>
<linearGradient id="paint5_linear_29_113" x1="174.079" y1="58.2454" x2="221.107" y2="53.9886" gradientUnits="userSpaceOnUse">
<stop stop-color="#FF7B7B"/>
<stop offset="1" stop-color="#FFB876"/>
</linearGradient>
<linearGradient id="paint6_linear_29_113" x1="173.949" y1="49.4895" x2="248.053" y2="44.2635" gradientUnits="userSpaceOnUse">
<stop stop-color="#FF4141"/>
<stop offset="1" stop-color="#FFBA52"/>
</linearGradient>
</defs>
</svg>
